<svg width="20" height="20" viewBox="0 0 20 20" fill="none" xmlns="http://www.w3.org/2000/svg">
<g clip-path="url(#clip0_6_7931)">
<path d="M19.7902 10.0374C19.7902 9.21802 19.7222 8.62008 19.5749 8H10V11.6983H15.6203C15.507 12.6174 14.8951 14.0015 13.5353 14.9316L13.5163 15.0554L16.5437 17.3473L16.7534 17.3677C18.6797 15.6292 19.7902 13.0714 19.7902 10.0374Z" fill="#4285F4"/>
<path d="M10.1993 19.9312C12.9527 19.9312 15.2643 19.0453 16.9527 17.5173L13.7346 15.0812C12.8734 15.6681 11.7176 16.0777 10.1993 16.0777C7.50242 16.0777 5.21352 14.3393 4.39759 11.9365L4.27799 11.9464L1.13003 14.3271L1.08887 14.439C2.76588 17.6944 6.2106 19.9312 10.1993 19.9312Z" fill="#34A853"/>
<path d="M4.39748 11.9368C4.18219 11.3167 4.05759 10.6523 4.05759 9.96583C4.05759 9.27927 4.18219 8.61492 4.38615 7.99484L4.38045 7.86278L1.19304 5.44385L1.08876 5.49232C0.397576 6.84324 0.000976562 8.36026 0.000976562 9.96583C0.000976562 11.5714 0.397576 13.0884 1.08876 14.4393L4.39748 11.9368Z" fill="#FBBC05"/>
<path d="M10.1993 3.85336C12.1142 3.85336 13.406 4.66168 14.1425 5.33718L17.0207 2.59107C15.253 0.985496 12.9527 0 10.1993 0C6.2106 0 2.76588 2.23672 1.08887 5.49214L4.38626 7.99466C5.21352 5.59183 7.50242 3.85336 10.1993 3.85336Z" fill="#EB4335"/>
</g>
<defs>
<clipPath id="clip0_6_7931">
<rect width="20" height="20" fill="white"/>
</clipPath>
</defs>
</svg>
