<svg width="18" height="18" viewBox="0 0 18 18" fill="none" xmlns="http://www.w3.org/2000/svg">
<g clip-path="url(#clip0_118_63)">
<path d="M8.99777 6.06C9.41927 6.06 9.76652 5.841 9.81377 5.5575L10.2308 0.84825C10.2308 0.3825 9.68552 0 8.99927 0C8.31452 0 7.77002 0.3825 7.77002 0.84825L8.18627 5.5575C8.23202 5.841 8.57927 6.06 9.00002 6.06H8.99777Z" fill="#0037FB"/>
<path d="M6.45293 7.53087C6.66443 7.16637 6.64793 6.75537 6.42518 6.57387L2.55443 3.85887C2.15243 3.62637 1.54868 3.90687 1.20593 4.50012C0.862432 5.09337 0.923182 5.75637 1.32518 5.98887L5.61068 7.98462C5.87918 8.08437 6.24368 7.89312 6.45443 7.52862L6.45293 7.53087Z" fill="#0037FB"/>
<path d="M11.5454 7.52854C11.7561 7.89304 12.1199 8.08429 12.3884 7.98454L16.6746 5.98879C17.0781 5.75629 17.1359 5.09329 16.7946 4.50004C16.4504 3.90604 15.8459 3.62554 15.4446 3.85879L11.5739 6.57379C11.3526 6.75604 11.3361 7.16629 11.5469 7.53079L11.5454 7.52854Z" fill="#0037FB"/>
<path d="M8.99777 11.9424C9.41927 11.9424 9.76652 12.1606 9.81377 12.4434L10.2308 17.1526C10.2308 17.6191 9.68552 18.0009 8.99927 18.0009C8.31452 18.0009 7.77002 17.6191 7.77002 17.1526L8.18627 12.4434C8.23202 12.1599 8.58002 11.9424 9.00002 11.9424H8.99777Z" fill="#0037FB"/>
<path d="M11.5454 10.4715C11.7561 10.1063 12.1199 9.91654 12.3884 10.0178L16.6746 12.0113C17.0781 12.2445 17.1359 12.9075 16.7946 13.5015C16.4504 14.0933 15.8459 14.3745 15.4446 14.1428L11.5739 11.43C11.3526 11.2455 11.3361 10.836 11.5469 10.4715H11.5454Z" fill="#0037FB"/>
<path d="M6.45293 10.4706C6.66443 10.8351 6.64793 11.2453 6.42518 11.4291L2.55443 14.1418C2.15243 14.3743 1.54868 14.0931 1.20593 13.5006C0.862432 12.9066 0.923182 12.2436 1.32518 12.0103L5.61068 10.0168C5.87918 9.91556 6.24368 10.1053 6.45443 10.4706H6.45293Z" fill="#0037FB"/>
</g>
<defs>
<clipPath id="clip0_118_63">
<rect width="18" height="18" fill="white"/>
</clipPath>
</defs>
</svg>
