<svg width="18" height="18" viewBox="0 0 18 18" fill="none" xmlns="http://www.w3.org/2000/svg">
<path fill-rule="evenodd" clip-rule="evenodd" d="M9.74899 5.89452C9.34725 5.92503 8.88307 5.95544 8.41965 6.01636C7.70925 6.1102 6.99886 6.2338 6.41283 6.51216C5.26954 6.9758 4.49658 7.96488 4.49658 9.41672C4.49658 11.2416 5.67039 12.1682 7.1545 12.1682C7.64844 12.1682 8.05007 12.1056 8.41965 12.0142C9.00819 11.828 9.50125 11.488 10.0882 10.8694C10.4281 11.3331 10.5219 11.5505 11.1081 12.0446C11.2628 12.1055 11.4176 12.1055 11.5402 12.014C11.9114 11.7044 12.5609 11.1477 12.9001 10.8389C13.0548 10.7154 13.0243 10.5293 12.9305 10.376C12.5913 9.94292 12.2506 9.57149 12.2506 8.73717V5.95544C12.2506 4.78108 12.3445 3.69892 11.4793 2.896C10.7688 2.24784 9.65591 2 8.79075 2H8.41954C6.84486 2.09144 5.17722 2.77164 4.80513 4.71928C4.74344 4.96713 4.92938 5.05944 5.05286 5.08984L6.78307 5.30641C6.96824 5.27513 7.06132 5.12025 7.09172 4.96713C7.24561 4.28692 7.80211 3.94677 8.41943 3.8842H8.54368C8.9149 3.8842 9.31663 4.03908 9.53232 4.34872C9.77929 4.71928 9.74877 5.2142 9.74877 5.64744V5.89452H9.74899ZM9.40894 9.57148C9.19249 10.0038 8.82127 10.2822 8.41954 10.376C8.35861 10.376 8.26565 10.4066 8.17257 10.4066C7.49346 10.4066 7.09183 9.88113 7.09183 9.10872C7.09183 8.11888 7.67874 7.656 8.41954 7.43856C8.82127 7.34636 9.28546 7.31508 9.74888 7.31508V7.68652C9.74899 8.39713 9.7794 8.95308 9.40894 9.57148Z" fill="#FFA800"/>
<path fill-rule="evenodd" clip-rule="evenodd" d="M13.9726 13.3356C13.9026 13.3347 13.8311 13.3512 13.7644 13.3825C13.6895 13.4122 13.6129 13.4467 13.5405 13.4772L13.4343 13.5218L13.296 13.5769V13.5785C11.7938 14.188 10.2158 14.5454 8.75556 14.5767C8.70207 14.5783 8.64772 14.5783 8.59587 14.5783C6.29932 14.58 4.42584 13.5143 2.53595 12.4643C2.47011 12.4298 2.40175 12.4116 2.3359 12.4116C2.25114 12.4116 2.16386 12.4438 2.10053 12.503C2.03709 12.5632 1.99925 12.6496 2.00001 12.7378C1.99914 12.8523 2.06093 12.9576 2.14734 13.026C3.92118 14.5668 5.86554 15.9981 8.48059 15.9998C8.53167 15.9998 8.58351 15.9981 8.63536 15.9972C10.299 15.9602 12.1798 15.3978 13.64 14.4803L13.6491 14.4745C13.8401 14.36 14.031 14.23 14.2113 14.0858C14.3233 14.0027 14.4006 13.8725 14.4006 13.7374C14.3957 13.4979 14.1924 13.3356 13.9726 13.3356ZM15.9984 12.4841V12.4832C15.9918 12.3374 15.9613 12.2263 15.9004 12.1341L15.8938 12.125L15.8864 12.116C15.8247 12.0485 15.7654 12.0229 15.7012 11.9949C15.5094 11.9207 15.2303 11.8812 14.8946 11.8804C14.6534 11.8804 14.3875 11.9034 14.12 11.9619L14.1191 11.9437L13.8499 12.0335L13.845 12.036L13.6927 12.0854V12.092C13.5141 12.1662 13.3519 12.2584 13.2013 12.3679C13.1075 12.4379 13.0302 12.5309 13.026 12.6733C13.0235 12.7508 13.0631 12.8397 13.128 12.8924C13.1931 12.9451 13.2688 12.9633 13.3354 12.9633C13.3511 12.9633 13.3658 12.9624 13.3791 12.96L13.3922 12.9591L13.402 12.9575C13.5337 12.9295 13.7256 12.9106 13.9502 12.8793C14.1428 12.8579 14.3469 12.8422 14.524 12.8422C14.6491 12.8413 14.7619 12.8504 14.8392 12.8669C14.8779 12.8751 14.9067 12.8851 14.9223 12.8933C14.9281 12.8949 14.9322 12.8974 14.9347 12.8991C14.938 12.9098 14.9429 12.9378 14.9421 12.9765C14.9438 13.1247 14.8812 13.3998 14.7948 13.6683C14.7108 13.9368 14.6088 14.2061 14.5413 14.3848C14.5248 14.426 14.5142 14.4714 14.5142 14.5207C14.5125 14.5923 14.5422 14.6796 14.6047 14.7372C14.6656 14.7949 14.7446 14.818 14.8105 14.818H14.8137C14.9125 14.8171 14.9965 14.7776 15.0689 14.7208C15.7521 14.1065 15.99 13.1248 15.9999 12.5723L15.9984 12.4841Z" fill="#FFA800"/>
</svg>
