<svg width="18" height="18" viewBox="0 0 18 18" fill="none" xmlns="http://www.w3.org/2000/svg">
<g clip-path="url(#clip0_124_187)">
<path d="M13.5063 15C14.3348 15 15.0063 14.3284 15.0063 13.5C15.0063 12.6716 14.3348 12 13.5063 12C12.6779 12 12.0063 12.6716 12.0063 13.5C12.0063 14.3284 12.6779 15 13.5063 15Z" fill="#34A853"/>
<path d="M9.00635 12C10.249 12 11.2563 10.9926 11.2563 9.75C11.2563 8.50736 10.249 7.5 9.00635 7.5C7.76371 7.5 6.75635 8.50736 6.75635 9.75C6.75635 10.9926 7.76371 12 9.00635 12Z" fill="#4285F4"/>
<path d="M2.25 12.675C2.25 14.3728 3.62719 15.75 5.325 15.75H9V14.25L5.24063 14.2406C4.41563 14.2406 3.75 13.4728 3.75 12.5625V10.875H2.25V12.675Z" fill="#EA4335"/>
<path d="M15.75 6.825C15.75 5.12719 14.3728 3.75 12.675 3.75H10.875L12.75 5.25C13.575 5.25 14.25 6.02719 14.25 6.9375V9.75H15.75V6.825Z" fill="#FBBC05"/>
<path d="M10.5 2.25H7.5L6.375 3.75H5.325C3.62719 3.75 2.25 5.12719 2.25 6.825V8.625H3.75V6.9375C3.75 6.02719 4.425 5.25 5.25 5.25H12.75L10.5 2.25Z" fill="#4285F4"/>
</g>
<defs>
<clipPath id="clip0_124_187">
<rect width="18" height="18" fill="white"/>
</clipPath>
</defs>
</svg>
