<svg width="18" height="18" viewBox="0 0 18 18" fill="none" xmlns="http://www.w3.org/2000/svg">
<g clip-path="url(#clip0_124_137)">
<path d="M0.179395 12.1992C0.175879 11.6332 0.172363 11.0672 0.172363 10.5012C0.172363 9.27422 0.175879 8.04727 0.179395 6.82031C1.04424 6.82031 1.90908 6.82031 2.77393 6.82031C3.68096 6.82031 4.58447 6.82031 5.4915 6.82031C5.57236 6.82031 5.67783 6.85195 5.69541 6.71484C5.75869 6.75703 5.81846 6.80273 5.88174 6.84492C6.71846 7.44961 7.6501 7.82227 8.68018 7.90313C9.64346 7.98047 10.5786 7.83281 11.461 7.42148C11.4892 7.52344 11.57 7.47773 11.6333 7.48477C11.7247 7.4918 11.8196 7.47422 11.8829 7.55859C11.8724 7.56914 11.8618 7.58672 11.8478 7.59375C10.8669 8.30039 10.2271 9.24258 9.86494 10.3887C9.67861 10.9828 9.60478 11.598 9.46768 12.1992C9.40439 12.1992 9.3376 12.1957 9.27432 12.1957C6.24385 12.1992 3.20986 12.1992 0.179395 12.1992Z" fill="#FDDE37"/>
<path d="M0.179492 2.91818C0.175977 2.04631 0.175977 1.17443 0.168945 0.302555C0.168945 0.204118 0.200586 0.16193 0.299023 0.172477C0.33418 0.175993 0.369336 0.172477 0.404492 0.172477C6.15605 0.172477 11.9041 0.172477 17.6557 0.172477C17.9193 0.172477 17.8877 0.144352 17.8877 0.408024C17.8877 1.46623 17.8842 2.52795 17.8807 3.58615C16.8506 3.60724 15.8205 3.54396 14.7939 3.62131C14.801 3.58263 14.8115 3.54045 14.8186 3.50177C14.9346 2.97443 14.8607 2.47873 14.5478 2.03576C14.1576 1.48381 13.5107 1.45568 13.0607 1.96193C12.8252 2.2256 12.7338 2.54552 12.6811 2.88654C10.2834 2.88654 7.88574 2.88654 5.4916 2.88654C5.45996 2.62638 5.38262 2.38732 5.24551 2.16232C4.81309 1.4381 3.96934 1.41701 3.49824 2.11662C3.33301 2.36271 3.26621 2.63693 3.22051 2.9217C2.20801 2.91818 1.19199 2.91818 0.179492 2.91818Z" fill="#FDE441"/>
<path d="M0.179492 12.1992C3.21348 12.1992 6.24394 12.1992 9.27793 12.1992C9.34121 12.1992 9.40801 12.2027 9.47129 12.2027C9.45371 12.3082 9.43262 12.4102 9.41504 12.5156C9.40449 12.5332 9.39746 12.5508 9.38691 12.5684C9.32363 12.5719 9.26035 12.5824 9.19707 12.5824C8.55371 12.5824 7.91035 12.5789 7.26348 12.5859C6.80996 12.5895 6.35996 12.5859 5.90293 12.6457C5.30879 12.723 4.71113 12.7758 4.11348 12.8391C3.89199 12.8707 3.66348 12.8672 3.44902 12.9445C4.24004 13.0816 5.03105 13.2012 5.81855 13.3242C6.18418 13.3805 6.08926 13.2926 6.20527 13.6758C6.22988 13.7637 6.2123 13.7848 6.12441 13.7918C5.88535 13.8059 5.64629 13.8305 5.40723 13.8516C5.14707 13.8762 4.88691 13.9008 4.62676 13.9254C5.12598 14.0273 5.62168 14.1082 6.11738 14.168C6.28262 14.1891 6.35644 14.2453 6.37754 14.4176C6.38808 14.523 6.37754 14.5477 6.27559 14.5512C5.34746 14.5969 4.41582 14.6496 3.48769 14.6988C2.85488 14.734 2.22559 14.7691 1.59277 14.8043C1.55059 14.8078 1.5084 14.8043 1.49434 14.8676C2.15527 14.8922 2.81269 14.9203 3.47012 14.9449C4.28223 14.9766 5.09785 15.0152 5.90996 15.0398C6.36699 15.0539 6.82051 15.0926 7.27754 15.0574C7.52363 15.0785 7.76973 15.0785 8.01934 15.0574C8.32871 15.0645 8.63809 15.075 8.94746 15.082C8.90176 15.3633 8.85605 15.6445 8.80684 15.9258C8.69433 16.5797 8.58183 17.2336 8.46582 17.8875C7.90332 17.8875 7.34082 17.891 6.77832 17.891C4.64082 17.891 2.4998 17.891 0.362305 17.891C0.249805 17.891 0.168945 17.898 0.168945 17.7328C0.172461 15.9152 0.172461 14.0906 0.172461 12.2695C0.172461 12.2449 0.175977 12.2238 0.179492 12.1992Z" fill="#FCD930"/>
<path d="M17.8842 13.4648C17.8877 14.3473 17.8912 15.2332 17.8912 16.1156C17.8912 16.6605 17.8912 17.2055 17.8947 17.7469C17.8947 17.8453 17.8807 17.8945 17.7646 17.8945C15.817 17.891 13.8693 17.8875 11.9182 17.8875C11.9041 17.877 11.89 17.8699 11.876 17.8594C11.9076 17.6379 11.9393 17.4164 11.9744 17.1949C12.0799 16.766 12.115 16.323 12.2029 15.8906C12.2486 15.6586 12.2979 15.4266 12.333 15.191C12.3471 15.0961 12.3822 15.068 12.4736 15.068C12.6881 15.0715 12.9025 15.0609 13.117 15.0574C13.3139 15.0609 13.5143 15.0609 13.7111 15.0715C14.14 15.0891 14.4178 14.8781 14.5936 14.5055C14.7482 14.175 14.801 13.8199 14.8537 13.4648C15.8627 13.4648 16.8752 13.4648 17.8842 13.4648Z" fill="#FCD930"/>
<path d="M17.8842 13.4652C16.8752 13.4652 15.8627 13.4652 14.8537 13.4652C14.8361 13.2719 14.8748 13.0715 14.7693 12.8957C14.6814 12.6566 14.4846 12.5898 14.2561 12.5863C13.7744 12.5793 13.2893 12.5828 12.8076 12.5828C12.8779 12.284 12.8955 11.9746 12.9623 11.6723C13.0256 11.384 13.1064 11.0957 13.1205 10.7969C13.1521 10.7898 13.1697 10.7652 13.1768 10.7371C13.2611 10.4348 13.4158 10.1676 13.5846 9.91094C13.8588 9.59102 14.1928 9.35898 14.6041 9.25C14.8643 9.1832 15.1314 9.17617 15.3986 9.17266C15.6869 9.19023 15.9717 9.17266 16.2459 9.08477C16.499 9.00742 16.5975 8.88086 16.608 8.61367C16.6115 8.5082 16.5975 8.40273 16.5939 8.30078C17.0229 8.30078 17.4518 8.30078 17.8842 8.30078C17.8877 8.7332 17.8912 9.16562 17.8912 9.59805C17.8912 10.818 17.8912 12.0379 17.8912 13.2613C17.8912 13.3246 17.8877 13.3949 17.8842 13.4652Z" fill="#FCDC35"/>
<path d="M17.8841 8.29711C17.4552 8.29711 17.0263 8.29711 16.5938 8.29711C16.5692 8.18461 16.5481 8.06859 16.52 7.95609C16.4356 7.62562 16.4005 7.27757 16.172 6.99984C16.1614 6.98578 16.1474 6.97523 16.1368 6.96117C16.1192 6.94359 16.0981 6.92601 16.0806 6.90843C15.9927 6.82757 15.8872 6.78187 15.7747 6.75023C15.1313 6.57797 14.4915 6.66234 13.8517 6.77132C13.1415 6.89437 12.4806 7.15804 11.8794 7.55882C11.8126 7.47445 11.7177 7.49203 11.6298 7.485C11.57 7.48148 11.4856 7.52367 11.4575 7.42172C11.4927 7.40062 11.5278 7.38304 11.5665 7.36195C12.8954 6.66234 13.8517 5.65687 14.1997 4.15218C14.4845 4.06781 14.6673 3.87445 14.7938 3.61781C15.8204 3.54398 16.8505 3.60375 17.8806 3.58265C17.8841 4.45804 17.8876 5.33343 17.8876 6.20882C17.8911 6.90843 17.8876 7.60453 17.8841 8.29711Z" fill="#FDE13C"/>
<path d="M0.179395 2.91797C1.19541 2.91797 2.20791 2.91797 3.22393 2.91797C3.22744 3.04102 3.22744 3.16406 3.23096 3.28359C3.25908 3.82852 3.47002 4.06758 4.00439 4.18359C4.0501 4.57031 4.2083 4.91836 4.39463 5.25234C4.72158 5.83242 5.19268 6.28945 5.69541 6.71484C5.67783 6.84844 5.57588 6.82031 5.4915 6.82031C4.58447 6.82031 3.68096 6.82031 2.77393 6.82031C1.90908 6.82031 1.04424 6.82031 0.179395 6.82031C0.175879 5.79375 0.175879 4.76719 0.172363 3.74062C0.172363 3.46641 0.175879 3.19219 0.179395 2.91797Z" fill="#FDE23E"/>
<path d="M11.971 17.1949C11.9394 17.4164 11.9077 17.6379 11.8726 17.8594C11.862 17.8664 11.855 17.877 11.8585 17.8875C11.4929 17.8875 11.1237 17.8875 10.7581 17.8875C10.7651 17.8066 10.7159 17.7996 10.6526 17.782C10.0726 17.6203 9.51006 17.4129 9.01436 17.0613C8.9792 17.0367 8.92646 17.0297 8.88428 17.0156C8.90537 16.7414 8.93701 16.4672 9.02842 16.207C9.08115 16.2422 9.1374 16.2738 9.18662 16.3125C9.59443 16.643 10.0515 16.8785 10.5577 17.0227C11.0218 17.1492 11.4929 17.209 11.971 17.1949Z" fill="#0265FC"/>
<path d="M8.88437 17.0122C8.92656 17.0263 8.9793 17.0333 9.01445 17.0579C9.51016 17.4095 10.0727 17.6204 10.6527 17.7786C10.716 17.7962 10.7687 17.8032 10.7582 17.8841C10.0902 17.8841 9.42227 17.8841 8.7543 17.8841C8.74375 17.8735 8.7332 17.8665 8.72266 17.856C8.76484 17.5747 8.79648 17.2899 8.88437 17.0122Z" fill="#0158FD"/>
<path d="M8.88428 17.0125C8.79639 17.2868 8.76475 17.575 8.72256 17.8598C8.71904 17.8704 8.71904 17.8774 8.71904 17.8879C8.63467 17.8879 8.55029 17.8879 8.4624 17.8879C8.5749 17.234 8.69092 16.5801 8.80342 15.9262C8.85264 15.645 8.89834 15.3637 8.94404 15.0825C9.19014 15.0051 9.21826 15.0297 9.17607 15.2758C9.12334 15.5852 9.04951 15.8911 9.02842 16.204C8.93701 16.4641 8.90537 16.7383 8.88428 17.0125Z" fill="#0549A2"/>
<path d="M8.71875 17.8875C8.71875 17.877 8.72227 17.8699 8.72227 17.8594C8.73281 17.8699 8.74336 17.877 8.75391 17.8875C8.73984 17.8875 8.7293 17.8875 8.71875 17.8875Z" fill="#0265FC"/>
<path d="M11.8584 17.8875C11.8584 17.8734 11.8619 17.8629 11.8725 17.8594C11.8865 17.8699 11.9006 17.877 11.9146 17.8875C11.8971 17.8875 11.8795 17.8875 11.8584 17.8875Z" fill="#FDE441"/>
<path d="M5.69541 6.71523C5.19268 6.28984 4.72158 5.83281 4.39463 5.25273C4.20479 4.91875 4.0501 4.5707 4.00439 4.18398L4.01143 4.17695H4.02197C4.06416 4.18047 4.10283 4.18047 4.14502 4.18398C4.20127 4.19453 4.20478 4.24727 4.22588 4.28594C4.3208 4.46172 4.40518 4.64102 4.51416 4.80625C5.80791 6.75742 8.18447 7.71016 10.4556 7.14766C12.1853 6.71875 13.4087 5.67109 14.0907 4.01172C14.1224 4.01172 14.154 4.01523 14.1856 4.01523C14.1892 4.06094 14.1962 4.10664 14.1997 4.15234C13.8517 5.65703 12.8954 6.6625 11.5665 7.36211C11.5313 7.37969 11.4962 7.40078 11.4575 7.42188C10.5716 7.82969 9.63994 7.97734 8.67666 7.90352C7.64658 7.82266 6.71494 7.45 5.87822 6.84531C5.81846 6.80313 5.75869 6.76094 5.69541 6.71523Z" fill="#998825"/>
<path d="M11.8832 7.56233C12.4844 7.15803 13.1453 6.89787 13.8555 6.77482C14.4918 6.66584 15.1352 6.58147 15.7785 6.75373C15.891 6.78537 15.9965 6.82756 16.0844 6.91193C15.9051 6.87326 15.7258 6.80647 15.5465 6.79592C14.8504 6.75725 14.1613 6.79592 13.4828 6.96818C12.966 7.09826 12.4809 7.30217 12.059 7.63264C11.5141 7.97717 11.0922 8.44475 10.7547 8.98967C10.6422 9.176 10.5156 9.35529 10.4488 9.56623C10.2344 10.0162 10.0797 10.4838 9.9918 10.9725C9.98125 10.9936 9.96719 11.0147 9.96367 11.0358C9.86523 11.5912 9.7668 12.1432 9.67539 12.6987C9.6543 12.8252 9.61211 12.8815 9.475 12.8744C9.2957 12.8674 9.11289 12.878 8.93359 12.878C8.47656 12.878 8.01953 12.878 7.5625 12.8744C7.32695 12.8744 7.09492 12.8744 6.85938 12.8709C6.01211 12.8674 5.16484 12.8674 4.32109 12.8639C4.2543 12.8639 4.18047 12.8815 4.11719 12.8358C4.71484 12.769 5.3125 12.7197 5.90664 12.6424C6.36367 12.5826 6.81367 12.5862 7.26719 12.5826C7.91055 12.5756 8.55391 12.5826 9.20078 12.5791C9.26406 12.5791 9.32734 12.5721 9.39062 12.5651C9.42227 12.558 9.42227 12.5369 9.41875 12.5123C9.43633 12.4069 9.45742 12.3049 9.475 12.1994C9.60859 11.5983 9.68594 10.983 9.87226 10.3889C10.2309 9.24279 10.8742 8.30061 11.8551 7.59397C11.8621 7.58693 11.8727 7.57287 11.8832 7.56233Z" fill="#0549A2"/>
<path d="M5.49143 2.88281C7.88908 2.88281 10.2867 2.88281 12.6809 2.88281C12.6844 3.01289 12.6774 3.13945 12.6879 3.26953C12.709 3.56133 12.7758 3.83906 13.0324 4.02187C13.1133 4.08164 13.0746 4.14141 13.043 4.20469C12.7301 4.80234 12.2977 5.29453 11.7492 5.68125C10.1813 6.78516 8.17736 6.78516 6.57072 5.68477C5.98713 5.2875 5.50549 4.7918 5.15744 4.17305C5.10471 4.08164 5.08713 4.01484 5.18557 3.9375C5.32268 3.83203 5.39299 3.67383 5.44572 3.50859C5.509 3.30469 5.47736 3.09375 5.49143 2.88281Z" fill="#FDE23E"/>
<path d="M5.4915 2.8831C5.48096 3.09404 5.50908 3.30497 5.4458 3.50888C5.39307 3.67411 5.32627 3.83232 5.18564 3.93779C5.08369 4.01513 5.10478 4.08193 5.15752 4.17333C5.50908 4.79208 5.99072 5.28427 6.5708 5.68505C8.17744 6.78544 10.1813 6.78193 11.7493 5.68154C12.2978 5.29482 12.7302 4.80263 13.0431 4.20497C13.0782 4.14169 13.1169 4.08193 13.0325 4.02216C12.7724 3.83935 12.7056 3.56513 12.688 3.26982C12.6774 3.14325 12.6845 3.01318 12.681 2.8831C12.7337 2.5456 12.8286 2.22216 13.0606 1.95849C13.5106 1.45224 14.1575 1.48036 14.5478 2.03232C14.8606 2.47529 14.938 2.97099 14.8185 3.49833C14.8114 3.537 14.8009 3.57919 14.7938 3.61786C14.6638 3.8745 14.481 4.06786 14.1997 4.15224C14.1962 4.10654 14.1892 4.06083 14.1856 4.01513C14.3649 3.90615 14.5407 3.79716 14.6286 3.58622C14.829 3.1081 14.6778 2.34169 14.3052 1.9831C13.9817 1.67724 13.5493 1.67372 13.2435 1.99013C12.8813 2.36279 12.797 2.82333 12.8497 3.32255C12.8673 3.50536 12.9095 3.67763 13.0431 3.81825C13.1274 3.90615 13.1802 3.93075 13.2224 3.7831C13.2716 3.61786 13.3067 3.45615 13.3208 3.28388C13.3419 3.03779 13.5247 2.87255 13.7778 2.8831C14.0345 2.89365 14.1962 3.06591 14.2067 3.31904C14.2173 3.5581 14.1224 3.77607 14.0942 4.0081C13.4122 5.66747 12.1888 6.71513 10.4591 7.14404C8.18447 7.70654 5.81143 6.75732 4.51768 4.80263C4.40869 4.6374 4.32432 4.4581 4.22939 4.28232C4.2083 4.24365 4.20479 4.19091 4.14854 4.18036C4.10635 3.89911 3.99385 3.62841 3.99385 3.34013C3.99385 3.07646 4.15908 2.89716 4.42275 2.88661C4.68291 2.87607 4.87627 3.05185 4.88682 3.30497C4.89033 3.38583 4.89736 3.46669 4.91846 3.54755C4.94658 3.65302 4.96064 3.83583 5.03096 3.83583C5.15752 3.83232 5.22432 3.67763 5.25947 3.5581C5.43525 2.99911 5.35088 2.47529 4.95713 2.03583C4.59854 1.63857 4.06416 1.66669 3.72314 2.08505C3.40674 2.47177 3.34346 2.92529 3.40674 3.40693C3.44541 3.71279 3.59307 3.92372 3.89541 3.99755C4.01143 4.02568 4.03252 4.08193 4.029 4.18036H4.01846L4.01143 4.1874C3.47705 4.07138 3.26963 3.83232 3.23799 3.2874C3.23096 3.16435 3.23096 3.0413 3.23096 2.92177C3.27666 2.637 3.34346 2.36279 3.50869 2.11669C3.97979 1.41708 4.82002 1.43818 5.25596 2.1624C5.379 2.38388 5.45986 2.62294 5.4915 2.8831Z" fill="#FDFCFB"/>
<path d="M7.55867 12.8745C8.0157 12.8745 8.47273 12.8745 8.92977 12.878C8.92273 13.1804 8.92625 13.4862 9.00359 13.7815C9.28836 14.8644 9.97742 15.5464 11.0532 15.8452C11.4329 15.9507 11.8126 15.9331 12.1958 15.8909C12.1079 16.3233 12.0727 16.7663 11.9673 17.1952C11.4856 17.2093 11.0145 17.1495 10.554 17.0159C10.0477 16.8718 9.59422 16.6362 9.18289 16.3058C9.13367 16.2671 9.07742 16.2354 9.02469 16.2003C9.04227 15.8874 9.11961 15.5815 9.17234 15.2722C9.21453 15.0261 9.18641 15.0015 8.94031 15.0788C8.63094 15.0718 8.32156 15.0612 8.01219 15.0542C7.99461 14.9944 7.98406 14.9276 7.95594 14.8714C7.64305 14.2456 7.52352 13.5741 7.55867 12.8745Z" fill="#0174FC"/>
<path d="M4.11338 12.8394C4.17666 12.8851 4.25049 12.8675 4.31728 12.8675C5.16455 12.871 6.01182 12.871 6.85557 12.8745C6.85908 13.4862 6.95049 14.0839 7.16142 14.6604C7.20713 14.787 7.29502 14.9101 7.27392 15.0577C6.81689 15.0894 6.36338 15.0507 5.90635 15.0401C5.09424 15.019 4.27861 14.9804 3.4665 14.9452C2.80908 14.9206 2.15166 14.8925 1.49072 14.8679C1.50479 14.8046 1.54697 14.8081 1.58916 14.8046C2.22197 14.7694 2.85127 14.7343 3.48408 14.6991C4.41221 14.6499 5.34385 14.5972 6.27197 14.5515C6.37392 14.5479 6.38447 14.5233 6.37392 14.4179C6.35635 14.2456 6.279 14.1894 6.11377 14.1683C5.61455 14.105 5.11885 14.0276 4.62314 13.9257C4.8833 13.9011 5.14346 13.8765 5.40361 13.8519C5.64267 13.8308 5.88174 13.8062 6.1208 13.7921C6.20869 13.7851 6.22627 13.764 6.20166 13.6761C6.08916 13.2929 6.18057 13.3808 5.81494 13.3245C5.02392 13.2015 4.23643 13.0819 3.44541 12.9448C3.66338 12.8675 3.89189 12.871 4.11338 12.8394Z" fill="#0158FD"/>
<path d="M7.27773 15.0577C7.29531 14.9101 7.21094 14.787 7.16523 14.6604C6.95078 14.0839 6.86289 13.4862 6.85938 12.8745C7.09492 12.8745 7.32695 12.8745 7.5625 12.878C7.52734 13.5776 7.64687 14.2456 7.96328 14.8749C7.99141 14.9312 8.00195 14.9979 8.01953 15.0577C7.76992 15.0753 7.52383 15.0788 7.27773 15.0577Z" fill="#0265FC"/>
<path d="M9.41484 12.5156C9.41836 12.5402 9.41836 12.5613 9.38672 12.5684C9.39375 12.5508 9.4043 12.5332 9.41484 12.5156Z" fill="#FCDC35"/>
<path d="M12.1996 15.891C11.8163 15.9332 11.4331 15.9473 11.057 15.8453C9.98119 15.5465 9.29213 14.8644 9.00736 13.7816C8.93002 13.4828 8.92299 13.1805 8.93354 12.8781C9.11283 12.8746 9.29565 12.8641 9.47494 12.8746C9.61205 12.8816 9.65424 12.8254 9.67533 12.6988C9.76674 12.1434 9.86518 11.5914 9.96361 11.0359C9.96713 11.0148 9.98119 10.9937 9.99174 10.9727C10.0656 10.9762 10.1253 10.941 10.1851 10.9023C11.0746 10.3434 11.9921 10.2871 12.9413 10.7441C13.0011 10.7723 13.0538 10.8039 13.1242 10.8004C13.1101 11.0992 13.0292 11.3875 12.966 11.6758C12.8992 11.9781 12.8816 12.284 12.8113 12.5863C12.8078 12.6144 12.8007 12.6426 12.7972 12.6707C12.748 12.9027 12.748 12.9027 12.9871 12.9062C13.314 12.9062 13.641 12.9098 13.9644 12.9098C14.0242 13.7113 13.7816 14.3969 13.1804 14.9418C13.1453 14.9734 13.1171 15.0121 13.1206 15.0613C12.9062 15.0648 12.6917 15.0754 12.4773 15.0719C12.3824 15.0719 12.3507 15.1 12.3367 15.1949C12.2945 15.4269 12.2417 15.659 12.1996 15.891ZM11.6617 12.2699C11.1589 12.2383 10.607 12.6777 10.621 13.2894C10.6316 13.9082 11.0535 14.323 11.6511 14.3266C12.2277 14.3301 12.6706 13.9328 12.6847 13.3141C12.6953 12.741 12.2417 12.2664 11.6617 12.2699Z" fill="#0384FB"/>
<path d="M13.1136 15.0575C13.1101 15.0048 13.1382 14.9696 13.1733 14.938C13.7745 14.3931 14.0171 13.7075 13.9573 12.906C14.228 12.9024 14.4987 12.8989 14.7694 12.8989C14.8749 13.0782 14.8398 13.2786 14.8538 13.4685C14.7976 13.8235 14.7483 14.1786 14.5937 14.5091C14.4179 14.8817 14.1366 15.0927 13.7112 15.0751C13.5108 15.061 13.3105 15.061 13.1136 15.0575Z" fill="#0174FC"/>
<path d="M12.0552 7.62925C12.4771 7.29878 12.9622 7.09488 13.479 6.9648C14.1575 6.79253 14.8466 6.75386 15.5427 6.79253C15.7255 6.80308 15.9013 6.86988 16.0806 6.90855C16.0735 6.95425 16.1017 6.95777 16.1368 6.96128C16.1474 6.97535 16.1614 6.98589 16.172 6.99996C16.4005 7.27769 16.4356 7.62574 16.52 7.95621C16.5481 8.06871 16.5692 8.18472 16.5938 8.29722C16.6009 8.40269 16.6149 8.50816 16.6079 8.61011C16.5974 8.8773 16.4989 9.00386 16.2458 9.08121C15.9681 9.16558 15.6833 9.18316 15.3985 9.1691C15.4091 9.09527 15.3599 9.05308 15.3142 9.00386C15.1524 8.83511 14.9626 8.70152 14.7728 8.56792C13.9536 8.00542 13.0431 7.7066 12.0552 7.62925Z" fill="#0158FD"/>
<path d="M12.0555 7.62891C13.0434 7.70625 13.9539 8.00859 14.773 8.57109C14.9664 8.70469 15.1527 8.83828 15.3145 9.00703C15.3602 9.05273 15.4059 9.09844 15.3988 9.17227C15.1316 9.1793 14.8645 9.18281 14.6043 9.24961C14.1895 9.35859 13.859 9.58711 13.5848 9.91055C13.5637 9.84727 13.5004 9.8332 13.4512 9.80508C13.2016 9.66094 12.9309 9.56602 12.6566 9.49219C12.1645 9.36562 11.6687 9.32695 11.159 9.40781C10.9164 9.44648 10.6914 9.54141 10.4453 9.5625C10.5121 9.35156 10.6352 9.16875 10.7512 8.98594C11.0887 8.44102 11.5105 7.97344 12.0555 7.62891Z" fill="#0265FC"/>
<path d="M10.4453 9.56264C10.6879 9.53803 10.9164 9.44662 11.159 9.40795C11.6652 9.32709 12.1645 9.36225 12.6566 9.49233C12.9309 9.56264 13.2016 9.66108 13.4512 9.80522C13.5004 9.83334 13.5602 9.8474 13.5848 9.91069C13.4125 10.1673 13.2613 10.4345 13.177 10.7369C13.1699 10.765 13.1523 10.7896 13.1207 10.7966C13.0539 10.8001 12.9977 10.7685 12.9379 10.7404C11.9887 10.2833 11.0711 10.3396 10.1816 10.8986C10.1219 10.9372 10.0621 10.9724 9.98828 10.9689C10.0762 10.4802 10.2309 10.0126 10.4453 9.56264Z" fill="#0174FC"/>
<path d="M14.7694 12.8955C14.4987 12.899 14.228 12.9025 13.9573 12.9025C13.6303 12.9025 13.3034 12.899 12.9799 12.899C12.7409 12.899 12.7409 12.8955 12.7901 12.6635C12.7971 12.6354 12.8006 12.6072 12.8042 12.5791C13.2858 12.5791 13.7709 12.5791 14.2526 12.5826C14.4811 12.5861 14.678 12.6564 14.7694 12.8955Z" fill="#0549A2"/>
<path d="M16.1369 6.96094C16.1018 6.96094 16.0736 6.95391 16.0807 6.9082C16.1018 6.92578 16.1193 6.94336 16.1369 6.96094Z" fill="#0549A2"/>
<path d="M16.1719 6.99619C16.1613 6.98213 16.1473 6.97158 16.1367 6.95752C16.1473 6.97158 16.1613 6.98564 16.1719 6.99619Z" fill="#0549A2"/>
<path d="M4.02566 4.17696C4.0327 4.07852 4.0116 4.02227 3.89207 3.99414C3.58973 3.92383 3.44207 3.70938 3.4034 3.40352C3.34012 2.91836 3.4034 2.46836 3.71981 2.08164C4.06082 1.66328 4.5952 1.63516 4.95379 2.03243C5.35105 2.47188 5.43191 2.99571 5.25613 3.55469C5.21746 3.67422 5.15418 3.82891 5.02762 3.83243C4.95731 3.83594 4.94324 3.64961 4.91512 3.54414C4.89402 3.46328 4.88699 3.38243 4.88348 3.30157C4.87293 3.04844 4.67957 2.87266 4.41941 2.88321C4.15574 2.89375 3.99051 3.07305 3.99051 3.33672C3.99051 3.62852 4.10652 3.89571 4.1452 4.17696C4.10652 4.18399 4.06434 4.18047 4.02566 4.17696Z" fill="#474747"/>
<path d="M14.0943 4.01495C14.1224 3.78292 14.2174 3.56495 14.2068 3.32589C14.1963 3.07276 14.0346 2.9005 13.7779 2.88995C13.5248 2.8794 13.3385 3.04464 13.3209 3.29073C13.3068 3.45948 13.2717 3.62471 13.2224 3.78995C13.1803 3.9376 13.1275 3.913 13.0431 3.8251C12.9096 3.68448 12.8674 3.5087 12.8498 3.3294C12.7971 2.8337 12.8814 2.36964 13.2435 1.99698C13.5529 1.68057 13.9853 1.68057 14.3053 1.98995C14.6779 2.34854 14.8291 3.11495 14.6287 3.59307C14.5408 3.80401 14.365 3.913 14.1857 4.02198C14.1576 4.01495 14.126 4.01495 14.0943 4.01495Z" fill="#474747"/>
<path d="M11.6614 12.2697C12.2415 12.2662 12.695 12.7408 12.6844 13.3138C12.6739 13.9326 12.2274 14.3298 11.6508 14.3263C11.0532 14.3228 10.6348 13.908 10.6208 13.2892C10.6102 12.6775 11.1586 12.238 11.6614 12.2697Z" fill="#0292FB"/>
</g>
<defs>
<clipPath id="clip0_124_137">
<rect width="18" height="18" rx="9" fill="white"/>
</clipPath>
</defs>
</svg>
