<svg width="393" height="20" viewBox="0 0 393 20" fill="none" xmlns="http://www.w3.org/2000/svg">
<path d="M368.443 15.9709C362.654 15.9709 359.805 12.2657 356.787 8.3433C353.631 4.24205 350.369 0.000261643 343.877 0.000262566C337.385 0.000263488 334.124 4.24205 330.968 8.3433C327.95 12.2657 325.101 15.9709 319.312 15.9709C313.524 15.9709 310.675 12.2657 307.66 8.34331C304.505 4.24206 301.243 0.000268625 294.751 0.000269547C288.259 0.00027047 284.997 4.24206 281.841 8.34331C278.823 12.2657 275.978 15.9709 270.19 15.9709C264.401 15.9709 261.552 12.2657 258.538 8.34331C255.382 4.24206 252.121 0.000275606 245.628 0.000276528C239.136 0.000277451 235.875 4.24207 232.719 8.34332C229.701 12.2657 226.852 15.9709 221.067 15.9709C215.283 15.9709 212.429 12.2657 209.415 8.34332C206.26 4.24207 203.002 0.000282586 196.506 0.000283509C190.014 0.000284432 186.752 4.24207 183.596 8.34332C180.578 12.2657 177.729 15.9709 171.945 15.9709C166.156 15.9709 163.307 12.2657 160.293 8.34333C157.137 4.24208 153.875 0.000289568 147.383 0.00029049C140.891 0.000291413 137.629 4.24208 134.474 8.34333C131.46 12.2657 128.611 15.9709 122.822 15.9709C117.033 15.9709 114.184 12.2657 111.17 8.34333C108.014 4.24208 104.753 0.000296548 98.2646 0.000297471C91.7726 0.000298393 88.5109 4.24209 85.3592 8.34334C82.345 12.2657 79.496 15.9709 73.7074 15.9709C67.9188 15.9709 65.0696 12.2657 62.0554 8.34334C58.8998 4.24209 55.6382 0.000303528 49.1461 0.000304451C42.6541 0.000305374 39.3922 4.24209 36.2366 8.34334C33.2185 12.2657 30.3735 15.9709 24.5849 15.9709C18.7963 15.9709 15.9471 12.2657 12.9329 8.34335C9.77725 4.2421 6.51562 0.000310509 0.0235891 0.000311432L0.0235892 3.26481C5.81219 3.26481 8.66116 6.96999 11.6753 10.8924C14.831 14.9936 18.0928 19.2354 24.5849 19.2354C31.0769 19.2354 34.3386 14.9936 37.4942 10.8924C40.5123 6.96998 43.3575 3.2648 49.1461 3.2648C54.9348 3.2648 57.7837 6.96998 60.7979 10.8924C63.9535 14.9936 67.2113 19.2354 73.7034 19.2354C80.1954 19.2354 83.4571 14.9936 86.6088 10.8924C89.623 6.96998 92.4722 3.2648 98.2608 3.2648C104.049 3.26479 106.898 6.96997 109.913 10.8924C113.068 14.9936 116.326 19.2354 122.818 19.2354C129.31 19.2354 132.572 14.9936 135.724 10.8923C138.738 6.96997 141.587 3.26479 147.375 3.26479C153.164 3.26479 156.013 6.96997 159.027 10.8923C162.183 14.9936 165.445 19.2354 171.937 19.2354C178.429 19.2354 181.691 14.9936 184.846 10.8923C187.864 6.96996 190.709 3.26478 196.498 3.26478C202.287 3.26478 205.136 6.96996 208.15 10.8923C211.306 14.9936 214.563 19.2354 221.059 19.2354C227.555 19.2354 230.813 14.9936 233.969 10.8923C236.987 6.96996 239.836 3.26478 245.621 3.26477C251.405 3.26477 254.258 6.96995 257.273 10.8923C260.428 14.9936 263.69 19.2354 270.182 19.2354C276.674 19.2354 279.936 14.9936 283.091 10.8923C286.109 6.96995 288.955 3.26477 294.743 3.26477C300.532 3.26477 303.381 6.96995 306.395 10.8923C309.551 14.9936 312.812 19.2354 319.304 19.2354C325.796 19.2354 329.058 14.9936 332.214 10.8923C335.232 6.96994 338.081 3.26476 343.87 3.26476C349.658 3.26476 352.507 6.96994 355.525 10.8923C358.681 14.9936 361.943 19.2354 368.435 19.2354C374.927 19.2354 378.189 14.9936 381.344 10.8923C384.362 6.96993 387.211 3.26475 393 3.26475L393 0.000255585C386.508 0.000256507 383.246 4.24205 380.091 8.3433C377.08 12.2657 374.231 15.9709 368.443 15.9709Z" fill="#F0F0F7" fill-opacity="0.1"/>
</svg>
